<svg width="22" height="24" viewBox="0 0 22 24" fill="none" xmlns="http://www.w3.org/2000/svg">
<path fill-rule="evenodd" clip-rule="evenodd" d="M6.86484 9.67811C11.4138 8.09763 12.1881 3.98055 11.6074 0.195187C11.6074 0.0586017 11.7236 -0.0389593 11.8397 6.51414e-05C16.1951 2.14641 21.0926 6.82933 21.0926 13.8537C21.0926 19.2391 16.9501 24.0001 10.9299 24.0001C8.78173 24.0985 6.66221 23.4731 4.90585 22.2224C3.1495 20.9718 1.85635 19.1672 1.2305 17.0934C0.604657 15.0197 0.68176 12.7949 1.44964 10.7702C2.21752 8.74556 3.63245 7.03631 5.4711 5.91226C5.58725 5.83421 5.74211 5.91226 5.74211 6.04885C5.80018 6.7708 5.99375 8.58543 6.78741 9.67811H6.86484Z" fill="url(#paint0_linear_375_2231)"/>
<defs>
<linearGradient id="paint0_linear_375_2231" x1="2028.91" y1="-0.00860596" x2="-339.005" y2="1999.42" gradientUnits="userSpaceOnUse">
<stop stop-color="#FF7854"/>
<stop offset="1" stop-color="#FD267D"/>
</linearGradient>
</defs>
</svg>
