<svg width="101" height="24" viewBox="0 0 101 24" fill="none" xmlns="http://www.w3.org/2000/svg">
<path fill-rule="evenodd" clip-rule="evenodd" d="M6.09775 9.67793C10.6467 8.09744 11.421 3.98037 10.8403 0.195004C10.8403 0.0584186 10.9565 -0.0391424 11.0726 -0.000117964C15.428 2.14622 20.3255 6.82915 20.3255 13.8535C20.3255 19.2389 16.183 23.9999 10.1628 23.9999C8.01464 24.0983 5.89512 23.4729 4.13876 22.2223C2.38241 20.9716 1.08926 19.167 0.463413 17.0933C-0.162432 15.0195 -0.0853295 12.7947 0.682552 10.7701C1.45043 8.74538 2.86536 7.03613 4.70401 5.91208C4.82016 5.83403 4.97502 5.91208 4.97502 6.04866C5.03309 6.77061 5.22667 8.58525 6.02032 9.67793H6.09775Z" fill="url(#paint0_linear_4919_1483)"/>
<path fill-rule="evenodd" clip-rule="evenodd" d="M33.14 19.727L33.469 19.3368L34.495 22.6148L34.3595 22.7514C33.5852 23.4734 32.4237 23.8441 30.9332 23.8441H30.8751C29.5201 23.8441 28.4555 23.4538 27.7199 22.7319C26.9843 21.9904 26.5971 20.8782 26.5971 19.4734V10.5368H23.9839V6.92702H26.5971V2.5758H30.6235V6.92702H33.8175V10.5368H30.6041V18.5953C30.6041 18.966 30.7009 20.1563 31.8236 20.1563C32.4044 20.1563 32.9464 19.9417 33.14 19.7075V19.727ZM35.2693 23.4734V6.94653H39.2956V23.4734H35.2693ZM37.2631 0.195312C37.7408 0.195328 38.2079 0.337895 38.6054 0.605046C39.0028 0.872197 39.313 1.25197 39.4967 1.69651C39.6804 2.14105 39.7294 2.63045 39.6376 3.10304C39.5458 3.57562 39.3173 4.01024 38.9808 4.3521C38.6443 4.69397 38.215 4.92779 37.7469 5.02409C37.2788 5.1204 36.7929 5.07487 36.3505 4.89325C35.908 4.71164 35.5288 4.40206 35.2606 4.00354C34.9924 3.60502 34.8472 3.13539 34.8434 2.65385C34.8434 1.32702 35.9468 0.195312 37.2631 0.195312ZM50.1164 6.53678C53.6008 6.53678 55.5172 8.44897 55.5172 11.9417V23.4538H51.4908V12.9173C51.4134 11.0441 50.5229 10.1856 48.6259 10.1856C46.9225 10.1856 45.5481 11.2392 44.8512 12.1368V23.4538H40.8249V6.96604H44.8512V8.72214C46.0127 7.59044 47.871 6.5758 50.1164 6.5758V6.53678ZM68.9125 8.66361V0.897752H72.9389V23.4929H68.9125V21.7758C68.2964 22.4308 67.5552 22.9534 66.7335 23.3122C65.9119 23.671 65.0267 23.8586 64.1312 23.8636C59.7371 23.8636 56.7948 20.3904 56.7948 15.2197C56.7948 10.0295 59.7371 6.55629 64.1312 6.55629C65.0286 6.56041 65.9157 6.74949 66.7379 7.11188C67.5602 7.47427 68.3002 8.00233 68.9125 8.66361ZM68.9125 12.1563C68.4638 11.5672 67.8904 11.0864 67.2341 10.7488C66.5777 10.4113 65.855 10.2255 65.1185 10.2051C62.6213 10.2051 60.9566 12.2148 60.9566 15.2197C60.9566 18.2051 62.6213 20.2148 65.1185 20.2148C66.5703 20.2148 68.1576 19.4343 68.9125 18.3026V12.1563ZM82.3466 6.55629C87.1085 6.55629 90.4186 10.2636 90.4186 15.5319V16.6441H78.2428C78.6493 18.966 80.4689 20.449 82.9467 20.449C84.5146 20.449 86.2374 19.766 87.2247 18.7709L87.4957 18.5368L89.412 21.3075L89.2185 21.4831C87.4046 23.1042 85.04 23.957 82.6176 23.8636C77.5846 23.8636 74.0422 20.2929 74.0422 15.2002C74.0031 14.0758 74.1898 12.9551 74.591 11.9052C74.9922 10.8554 75.5998 9.89806 76.3772 9.09077C77.1546 8.28347 78.0858 7.64283 79.1149 7.2073C80.144 6.77178 81.2498 6.55034 82.3659 6.55629H82.3466ZM78.2234 13.5807H86.4891C86.2568 11.1026 84.2242 9.97092 82.3466 9.97092C79.5204 9.97092 78.4557 12.1173 78.2234 13.6002V13.5807ZM100.155 6.55629H100.446V10.6538L100.097 10.5953C99.807 10.5368 99.4392 10.4978 99.0714 10.4978C97.7745 10.4978 95.9742 11.4148 95.2967 12.3904V23.4538H91.2704V6.94653H95.3161V8.78068C96.6517 7.3758 98.4133 6.55629 100.155 6.55629Z" fill="#424242"/>
<defs>
<linearGradient id="paint0_linear_4919_1483" x1="2028.15" y1="-0.00878906" x2="-339.772" y2="1999.42" gradientUnits="userSpaceOnUse">
<stop stop-color="#FF7854"/>
<stop offset="1" stop-color="#FD267D"/>
</linearGradient>
</defs>
</svg>
